# xmcd
#
# Track frame offsets: 
#        150
#        13243
#        28078
#        40315
#        53710
#        69323
#        80558
#        91405
#        103993
#        115593
#
# Disc length: 1680 seconds
#
# Revision: 2
# Processed by: cddbd v1.5PL3 Copyright (c) Steve Scherf et al.
# Submitted via: ExactAudioCopy v0.90b4
#
DISCID=7f068e0a
DTITLE=Elmore James - Golden Hits
DYEAR=1957
DGENRE=Blues
TTITLE0=Dust My Broom
TTITLE1=It Hurts Me Too
TTITLE2=Mean Mistreatin
TTITLE3=Standing At The Crossroads
TTITLE4=I Believe
TTITLE5=Look On Yonder Wall
TTITLE6=Coming Home
TTITLE7=The Sky Is Crying
TTITLE8=Rollin' And Tumblin'
TTITLE9=I Done Somebody Wrong
EXTD=
EXTT0=
EXTT1=
EXTT2=
EXTT3=
EXTT4=
EXTT5=
EXTT6=
EXTT7=
EXTT8=
EXTT9=
PLAYORDER=
